<?xml version="1.0" standalone="no"?>
<!DOCTYPE svg PUBLIC "-//W3C//DTD SVG 20010904//EN"
 "http://www.w3.org/TR/2001/REC-SVG-20010904/DTD/svg10.dtd">
<svg version="1.0" xmlns="http://www.w3.org/2000/svg"
 width="384.000000pt" height="384.000000pt" viewBox="0 0 384.000000 384.000000"
 preserveAspectRatio="xMidYMid meet">

<g transform="translate(0.000000,384.000000) scale(0.100000,-0.100000)"
fill="#000000" stroke="none">
<path d="M1853 3420 c-15 -6 -21 -15 -17 -25 5 -11 2 -14 -10 -9 -10 4 -18 0
-22 -11 -4 -9 -12 -14 -20 -11 -7 3 -14 0 -16 -6 -2 -6 -19 -2 -42 10 -28 15
-44 18 -57 12 -10 -6 -32 -10 -49 -10 -30 0 -95 -39 -113 -67 -4 -7 -15 -13
-24 -13 -12 0 -13 3 -3 15 10 13 8 13 -18 -1 -34 -16 -55 -51 -25 -40 10 3 4
-6 -13 -23 -17 -16 -37 -30 -44 -33 -7 -2 -14 -15 -15 -29 -1 -13 -7 -25 -13
-25 -7 -1 -16 -2 -20 -3 -4 0 -16 -15 -26 -31 -9 -17 -20 -28 -24 -26 -13 8
-30 -21 -21 -35 7 -11 9 -11 9 4 0 9 5 17 10 17 6 0 10 -12 10 -26 0 -14 -4
-23 -9 -19 -6 3 -15 -4 -21 -15 -7 -13 -21 -20 -41 -20 -20 0 -40 -10 -60 -30
-16 -16 -31 -29 -32 -28 -1 1 -11 -3 -22 -10 -17 -9 -17 -11 -3 -12 9 0 20 -9
23 -20 8 -25 -3 -62 -16 -55 -5 4 -9 2 -9 -4 0 -5 -3 -16 -6 -24 -3 -10 1 -17
13 -19 15 -3 13 -8 -14 -37 -19 -20 -37 -30 -44 -25 -8 4 -9 3 -5 -4 4 -6 -2
-20 -14 -32 -22 -22 -4 -29 20 -7 11 10 11 8 0 -7 -8 -10 -13 -29 -12 -41 2
-14 -6 -31 -18 -43 -12 -11 -18 -25 -14 -35 4 -11 1 -17 -8 -17 -17 0 -41 -61
-32 -83 3 -8 1 -25 -6 -36 -8 -16 -8 -21 2 -21 7 0 5 -5 -5 -12 -10 -7 -25
-27 -35 -45 -9 -17 -27 -49 -39 -71 -21 -37 -57 -227 -47 -243 2 -4 0 -18 -5
-32 -6 -16 -3 -53 10 -118 10 -52 18 -108 19 -126 0 -43 70 -253 84 -253 2 0
-5 39 -14 88 -10 48 -24 131 -31 186 -12 93 -12 99 6 112 16 12 22 12 44 -3
14 -9 40 -31 57 -50 17 -18 38 -33 47 -33 9 0 23 -12 31 -27 14 -27 14 -27 14
27 -1 51 10 239 17 320 6 61 27 174 36 192 5 10 11 76 13 148 l4 130 38 59
c21 33 42 57 47 54 4 -2 20 7 34 21 23 24 78 46 112 46 7 0 29 9 47 20 29 19
43 20 131 15 54 -3 103 -6 108 -6 12 -1 101 9 129 14 10 2 25 12 32 22 13 18
14 17 14 -6 0 -19 2 -21 10 -9 5 8 10 11 10 6 0 -5 6 -4 13 2 7 6 33 10 57 8
25 -2 64 3 87 11 25 9 50 12 60 8 10 -5 23 -7 28 -6 6 2 15 4 20 5 6 1 20 6
32 10 13 4 31 2 45 -6 13 -7 46 -20 73 -30 28 -9 46 -17 40 -17 -10 -1 46 -35
76 -46 9 -4 27 -27 40 -52 13 -26 28 -45 32 -44 5 1 26 -25 48 -59 21 -33 46
-63 54 -66 8 -4 15 -11 15 -16 0 -6 8 -17 18 -24 16 -12 16 -14 0 -26 -14 -11
-15 -21 -8 -58 4 -25 9 -70 11 -100 1 -30 6 -60 10 -66 10 -12 14 -47 30 -264
6 -85 9 -177 6 -205 -4 -34 -3 -43 3 -28 5 12 19 29 32 37 13 8 34 35 48 60
26 49 63 66 99 46 28 -14 35 -48 28 -139 -5 -73 -4 -75 10 -42 12 29 29 90 47
172 4 20 -1 34 -21 55 -19 21 -22 29 -12 33 8 2 17 9 21 15 4 6 8 -1 8 -16 0
-15 5 -30 11 -34 22 -13 4 276 -25 406 -43 194 -65 270 -85 296 -11 14 -23 39
-26 55 -4 17 -13 33 -20 36 -8 2 -11 11 -8 19 3 8 -5 18 -21 25 -31 14 -35 34
-6 26 11 -3 20 -1 20 5 0 5 -9 12 -20 15 -14 4 -22 20 -31 61 -8 42 -25 75
-64 127 -29 39 -62 79 -74 89 -11 10 -23 31 -26 47 -4 16 -11 31 -16 34 -5 4
-6 -2 -2 -11 4 -12 3 -15 -6 -10 -6 4 -9 16 -6 27 5 15 -7 33 -47 73 -29 30
-62 56 -73 58 -18 5 -19 6 -2 13 32 13 89 -5 125 -41 19 -19 36 -33 39 -31 8
9 -62 67 -93 77 -18 6 -69 9 -113 7 -60 -3 -84 -1 -92 9 -14 17 -55 18 -64 3
-5 -7 -15 -5 -31 6 -13 8 -24 12 -24 7 0 -4 -13 -16 -30 -25 -33 -20 -38 -13
-14 21 9 13 11 22 4 22 -6 0 -19 -14 -28 -30 -19 -35 -55 -38 -60 -5 -6 41
-117 77 -169 55z m67 -9 c0 -12 -56 -20 -72 -10 -10 7 5 11 60 18 6 0 12 -3
12 -8z m30 -22 c0 -11 -4 -17 -10 -14 -5 3 -10 13 -10 21 0 8 5 14 10 14 6 0
10 -9 10 -21z m-550 -204 c0 -9 -6 -12 -15 -9 -8 4 -12 10 -9 15 8 14 24 10
24 -6z m1149 -76 c42 -15 68 -59 35 -59 -9 0 -18 9 -21 19 -3 11 -17 21 -34
25 -16 3 -29 10 -29 16 0 13 9 13 49 -1z m-1203 -18 c-8 -12 -46 -21 -46 -11
0 9 18 18 38 19 7 1 11 -3 8 -8z m527 -106 c0 -6 -7 -11 -16 -13 -12 -3 -15 1
-11 13 7 17 25 17 27 0z m-703 -64 c0 -5 -7 -14 -15 -21 -12 -10 -15 -10 -15
2 0 8 3 18 7 21 9 10 23 9 23 -2z m1730 -547 c0 -8 -4 -12 -10 -9 -5 3 -10 13
-10 21 0 8 5 12 10 9 6 -3 10 -13 10 -21z m34 -176 c5 -26 3 -38 -5 -38 -6 0
-9 -7 -5 -15 3 -8 0 -15 -5 -15 -7 0 -9 9 -6 22 3 11 0 33 -8 48 -10 19 -12
45 -8 86 l6 59 12 -55 c7 -30 16 -72 19 -92z m-2038 46 c-4 -9 -9 -15 -11 -12
-3 3 -3 13 1 22 4 9 9 15 11 12 3 -3 3 -13 -1 -22z m14 -229 c0 -8 -4 -15 -10
-15 -5 0 -10 7 -10 15 0 8 5 15 10 15 6 0 10 -7 10 -15z"/>
<path d="M2581 3230 c14 -31 19 -36 19 -24 0 6 -7 19 -16 30 -14 18 -14 18 -3
-6z"/>
<path d="M1242 3040 c0 -14 2 -19 5 -12 2 6 2 18 0 25 -3 6 -5 1 -5 -13z"/>
<path d="M2339 2365 c-3 -2 -51 -5 -108 -7 -82 -1 -106 -5 -123 -20 -23 -20
-32 -23 -23 -8 3 6 2 10 -4 10 -5 0 -15 -8 -20 -17 -8 -14 -10 -15 -11 -3 0
12 -2 13 -9 1 -9 -14 -8 -68 3 -78 3 -3 6 -2 6 4 0 11 5 12 85 17 33 1 71 8
84 15 12 7 52 17 87 22 70 10 104 0 152 -44 43 -40 21 0 -31 56 -47 51 -74 67
-88 52z"/>
<path d="M1629 2256 c-2 -2 -45 -6 -95 -9 -66 -3 -102 -11 -135 -27 -56 -29
-56 -28 -35 -43 13 -9 48 -12 119 -10 l102 3 -50 -25 c-31 -15 -42 -24 -30
-25 17 0 17 -2 5 -10 -12 -8 -8 -10 15 -11 94 -5 112 -7 133 -14 12 -4 22 -11
22 -15 0 -4 11 -12 25 -18 14 -6 25 -16 25 -22 0 -6 -27 3 -60 20 -104 52
-187 38 -294 -50 -40 -33 -44 -40 -30 -51 10 -8 18 -9 25 -2 7 7 22 6 48 -3
51 -17 115 -24 132 -13 11 7 10 9 -3 9 -10 0 -18 5 -18 10 0 6 6 10 13 10 16
0 57 42 57 58 0 19 20 24 51 12 29 -12 39 -30 17 -30 -14 0 -1 -14 15 -16 7 0
19 -2 29 -2 11 -2 14 -8 11 -22 -7 -26 8 -25 28 3 37 52 49 133 28 181 -9 20
-9 29 1 41 13 16 6 50 -9 41 -5 -4 -11 -1 -13 4 -2 6 -21 13 -43 15 -22 3 -49
7 -61 10 -12 2 -23 3 -25 1z m-137 -297 c5 -3 -5 -6 -22 -7 -20 0 -28 3 -24
10 5 7 1 9 -9 5 -9 -3 -19 -2 -22 3 -4 6 -1 10 4 10 6 0 11 6 11 14 0 26 25
24 39 -3 8 -14 18 -29 23 -32z"/>
<path d="M2175 2190 c-13 -6 -5 -7 25 -3 25 3 47 7 49 9 9 8 -55 2 -74 -6z"/>
<path d="M2138 2159 c-10 -5 -24 -9 -30 -8 -42 5 -49 -9 -20 -45 9 -13 24 -21
32 -18 8 2 -3 -12 -25 -32 -33 -29 -36 -35 -20 -36 11 0 37 9 58 20 36 19 37
19 37 1 0 -10 9 -30 21 -45 30 -38 79 -36 113 5 21 25 29 29 41 19 7 -6 15
-21 17 -33 4 -26 38 -37 38 -12 0 9 5 13 10 10 20 -13 29 6 11 24 -53 53 -193
107 -234 92 -24 -9 -57 2 -57 19 0 6 9 19 20 30 21 21 16 26 -12 9z m132 -99
c0 -5 -8 -10 -17 -10 -15 0 -16 2 -3 10 19 12 20 12 20 0z"/>
<path d="M2050 2100 c0 -5 4 -10 9 -10 6 0 13 5 16 10 3 6 -1 10 -9 10 -9 0
-16 -4 -16 -10z"/>
<path d="M1345 2010 c-16 -17 -16 -20 -3 -15 9 4 19 13 22 21 7 19 2 18 -19
-6z"/>
<path d="M926 1822 c3 -20 8 -64 13 -97 l7 -60 13 73 c14 80 12 96 -17 111
-19 10 -20 8 -16 -27z"/>
<path d="M2812 1841 c-15 -9 -7 -54 13 -71 9 -8 14 -5 18 11 8 29 -14 71 -31
60z"/>
<path d="M1000 1775 c0 -15 18 -40 24 -34 3 3 -1 14 -9 25 -8 10 -14 15 -15 9z"/>
<path d="M2665 1694 c-9 -15 -12 -23 -6 -20 6 4 14 -6 18 -24 l8 -31 16 35
c15 33 15 36 -1 51 -16 14 -19 13 -35 -11z"/>
<path d="M1040 1695 c-7 -8 -18 -15 -25 -15 -23 0 -37 -54 -26 -96 16 -58 36
-82 65 -77 18 4 26 0 31 -16 3 -12 15 -26 26 -31 11 -6 19 -21 19 -36 0 -26
-28 -86 -42 -92 -5 -2 -8 -12 -8 -22 0 -19 -24 -43 -46 -46 -8 -1 -30 2 -49 7
-31 9 -35 14 -35 44 0 27 -3 32 -19 28 -20 -5 -43 -66 -34 -89 3 -9 13 -13 22
-10 13 5 13 4 -1 -8 -10 -7 -18 -19 -18 -25 0 -8 5 -7 16 3 23 24 31 19 26
-14 -2 -16 -8 -30 -13 -30 -18 0 -8 -40 12 -50 11 -7 18 -18 15 -25 -3 -9 0
-12 9 -9 12 5 11 10 -3 32 l-17 27 31 -25 c17 -14 27 -27 22 -28 -5 -2 -3 -11
4 -20 11 -13 10 -15 -15 -10 -20 4 -25 2 -17 -7 7 -8 3 -15 -15 -23 -14 -6
-25 -15 -26 -19 -4 -47 -24 -70 -45 -53 -6 6 -14 6 -19 2 -4 -4 0 7 11 23 10
17 14 27 9 23 -4 -4 -14 0 -21 10 -12 15 -13 10 -14 -33 0 -41 5 -56 26 -79
l27 -28 -29 -26 c-16 -15 -32 -26 -36 -25 -11 4 -10 -31 2 -61 5 -14 17 -26
25 -26 9 0 14 -4 11 -9 -6 -9 63 -41 89 -41 8 0 15 -7 15 -15 0 -8 -5 -15 -12
-15 -6 0 -9 -3 -5 -6 8 -8 48 6 43 15 -3 4 5 8 16 8 11 1 27 11 35 22 8 12 18
21 22 21 16 0 31 -53 31 -111 0 -52 -4 -67 -31 -104 -19 -27 -49 -52 -76 -65
-25 -12 -80 -43 -123 -69 -96 -60 -156 -81 -263 -90 -79 -7 -257 -56 -323 -87
-17 -9 -43 -27 -58 -41 -27 -25 -32 -25 -107 -19 -43 3 -90 4 -104 0 -23 -6
-25 -10 -25 -70 l0 -64 1678 0 1677 1 -83 33 c-45 18 -153 73 -240 122 -86 48
-170 94 -185 102 -56 28 -84 64 -91 116 -3 27 -13 57 -22 67 -12 14 -16 46
-17 157 l-2 139 55 2 c58 2 133 23 162 45 32 24 48 80 43 152 -2 36 -5 67 -7
68 -2 0 -13 7 -25 14 -13 6 -43 12 -68 12 -36 0 -45 3 -45 18 -1 14 -4 13 -21
-7 -17 -21 -22 -22 -30 -10 -13 21 -11 36 6 43 10 3 15 19 15 46 0 22 5 40 11
40 6 0 9 7 6 14 -4 11 -1 13 11 9 11 -4 7 4 -10 21 -15 15 -33 41 -40 56 -7
16 -16 26 -21 23 -11 -7 -38 29 -32 45 5 14 -21 16 -30 2 -9 -14 -47 -12 -68
5 -20 14 -19 25 13 195 5 25 9 65 9 90 l0 45 -14 -50 c-8 -27 -14 -70 -15 -95
0 -33 -3 -41 -10 -30 -7 11 -10 5 -10 -22 0 -34 -12 -50 -23 -30 -2 4 -2 1 0
-6 1 -8 3 -23 3 -35 0 -20 0 -20 16 -1 14 18 15 18 8 -6 -4 -14 -6 -42 -6 -62
1 -20 -2 -39 -7 -42 -4 -3 -6 -18 -3 -32 4 -20 2 -25 -8 -19 -9 6 -10 3 -1
-13 6 -12 7 -23 2 -26 -5 -3 -12 -23 -15 -43 -9 -53 -27 -94 -37 -87 -5 3 -9
-4 -9 -16 0 -11 -8 -33 -17 -48 -24 -36 -63 -75 -63 -62 0 5 -5 10 -10 10 -7
0 -7 -6 -1 -19 8 -14 7 -20 -4 -25 -8 -3 -17 -1 -20 4 -4 6 -1 10 5 10 8 0 7
6 -1 21 -6 12 -7 19 -1 15 5 -3 12 4 16 17 3 12 1 24 -4 25 -12 5 -13 35 -1
48 5 5 12 29 15 54 l6 45 -21 -55 c-11 -30 -24 -69 -27 -85 -4 -17 -19 -46
-34 -65 l-27 -34 -12 27 c-7 15 -16 27 -22 27 -5 0 -7 13 -5 29 3 20 1 28 -8
24 -12 -4 -11 -39 2 -80 2 -7 -1 -13 -6 -13 -6 0 -10 10 -10 22 l0 21 -19 -22
c-17 -19 -23 -21 -42 -11 -20 11 -21 11 -15 -15 4 -17 3 -24 -4 -20 -5 3 -10
-1 -10 -10 0 -9 -5 -13 -11 -9 -6 3 -15 1 -19 -7 -7 -10 -12 -10 -23 -1 -12
10 -16 8 -21 -10 -5 -18 -8 -20 -15 -9 -7 10 -13 11 -31 1 -12 -6 -24 -9 -28
-5 -3 3 -11 -4 -17 -16 -11 -19 -13 -19 -28 -5 -11 12 -17 13 -20 3 -4 -8 -6
-7 -6 3 -1 9 -10 23 -20 32 -17 14 -20 15 -25 1 -3 -8 -4 -19 -1 -24 4 -5 -1
-6 -10 -3 -9 4 -14 13 -11 20 3 7 1 16 -4 19 -5 3 -11 -3 -14 -13 -4 -10 -13
-19 -22 -19 -9 0 -13 6 -9 16 3 8 3 12 -1 8 -4 -4 -14 -2 -21 5 -11 9 -16 9
-23 -2 -5 -8 -6 -18 -4 -22 8 -13 -11 -9 -25 5 -11 10 -12 9 -6 -3 8 -13 7
-13 -8 -1 -15 12 -17 11 -17 -4 0 -17 -1 -17 -19 -1 -14 13 -20 14 -23 4 -3
-7 -7 -3 -10 10 -4 12 -2 20 3 16 5 -3 9 0 9 5 0 16 -11 13 -33 -7 -19 -16
-20 -16 -14 1 6 15 4 16 -13 7 -25 -14 -30 -13 -24 5 7 18 -7 20 -24 3 -10
-10 -15 -10 -21 1 -5 8 -16 11 -30 6 -12 -4 -21 -2 -21 4 0 6 4 11 10 11 5 0
19 21 31 47 l21 47 -22 18 c-19 16 -37 17 -92 9 -5 0 -8 -6 -8 -12 0 -6 7 -9
14 -6 10 4 13 1 10 -8 -3 -7 2 -15 13 -18 13 -4 12 -5 -6 -6 -13 0 -21 -4 -18
-8 4 -3 -3 -11 -16 -18 -12 -6 -21 -17 -19 -24 2 -8 -4 -10 -18 -6 -15 5 -23
0 -32 -19 -6 -14 -15 -26 -20 -26 -13 0 -10 18 5 23 12 6 -17 11 -41 8 -8 -1
-16 6 -19 17 -2 11 -15 24 -29 30 -41 19 -103 162 -110 257 -1 17 -5 48 -9 70
-7 37 -6 39 11 25 11 -8 16 -10 12 -6 -4 5 -2 16 5 24 10 13 9 15 -8 10 -18
-4 -20 1 -22 60 -2 48 -7 68 -20 79 -10 8 -13 12 -7 9 7 -3 15 1 18 10 3 8 2
12 -3 9 -13 -7 -21 23 -37 125 l-13 85 0 -75 c0 -117 1 -116 -13 -102 -7 7
-11 43 -11 92 1 82 -9 99 -37 65z m106 -409 c0 -13 -2 -23 -4 -21 -2 2 -20 -8
-39 -21 -55 -37 -71 -31 -30 12 12 13 27 24 33 24 6 0 17 7 24 15 17 20 18 19
16 -9z m-149 -52 c-3 -3 -12 -4 -19 -1 -8 3 -5 6 6 6 11 1 17 -2 13 -5z m-24
-234 c-3 -11 -7 -20 -9 -20 -2 0 -4 9 -4 20 0 11 4 20 9 20 5 0 7 -9 4 -20z
m577 1 c0 -5 -7 -12 -16 -15 -14 -5 -15 -4 -4 9 14 17 20 19 20 6z m-540 -11
c0 -5 -5 -10 -11 -10 -5 0 -7 5 -4 10 3 6 8 10 11 10 2 0 4 -4 4 -10z m30 -10
c0 -5 -5 -10 -11 -10 -5 0 -7 5 -4 10 3 6 8 10 11 10 2 0 4 -4 4 -10z m1713
-40 c-3 -11 -9 -17 -15 -14 -5 3 -4 12 3 20 16 19 18 18 12 -6z m-249 -330 c7
-54 6 -55 -26 -78 -97 -68 -217 -125 -306 -147 -90 -23 -106 -30 -144 -67 -11
-11 -25 -15 -40 -11 -13 3 -33 6 -45 7 -13 0 -23 4 -23 9 0 4 -6 7 -14 7 -19
0 -29 30 -15 46 9 11 8 14 -5 14 -9 0 -22 11 -28 25 -6 14 -15 25 -20 25 -6 0
-8 6 -5 13 5 13 -19 62 -41 86 -12 12 -11 16 3 24 9 5 33 9 53 10 21 0 40 5
44 10 3 6 19 12 35 13 50 6 78 11 96 19 10 4 21 5 24 2 3 -4 14 -2 24 4 13 7
25 7 37 0 15 -9 15 -10 -5 -11 -12 0 -24 -4 -28 -9 -11 -19 69 11 86 32 12 14
18 17 19 8 0 -10 3 -11 13 -2 8 6 17 8 20 5 3 -4 13 1 22 10 9 9 22 16 30 16
7 0 31 24 52 53 21 28 47 61 59 72 12 11 27 31 34 45 7 14 27 43 44 65 l31 39
6 -139 c4 -77 10 -165 13 -195z m-1179 263 c21 -24 44 -43 51 -43 7 0 17 -6
21 -13 4 -8 23 -24 41 -37 17 -13 32 -27 32 -30 0 -15 -49 -3 -105 26 -66 33
-105 80 -105 126 0 36 12 30 65 -29z m1525 43 c0 -3 -4 -8 -10 -11 -5 -3 -10
-1 -10 4 0 6 5 11 10 11 6 0 10 -2 10 -4z m95 -13 c-4 -10 -8 -29 -9 -42 0
-13 -8 -26 -16 -29 -12 -4 -13 -2 -2 9 15 16 16 33 1 23 -6 -3 -3 8 5 25 17
33 33 43 21 14z m-560 -23 c3 -5 1 -10 -4 -10 -6 0 -11 5 -11 10 0 6 2 10 4
10 3 0 8 -4 11 -10z m-1435 -21 c0 -6 -7 -25 -14 -44 -16 -38 -36 -47 -36 -16
0 11 -3 27 -7 37 -5 13 -3 16 9 11 12 -4 14 -1 11 13 -4 15 -1 18 16 13 12 -3
21 -9 21 -14z m1940 -29 c-6 -11 -16 -20 -22 -20 -6 0 -3 9 7 20 10 11 20 20
22 20 2 0 -1 -9 -7 -20z m-57 -57 c-7 -2 -19 -2 -25 0 -7 3 -2 5 12 5 14 0 19
-2 13 -5z m-1156 -145 c-3 -8 -6 -5 -6 6 -1 11 2 17 5 13 3 -3 4 -12 1 -19z
m290 -358 c1 -11 -4 -20 -13 -20 -16 0 -16 2 -8 24 8 22 19 20 21 -4z m-50
-72 c-3 -8 -6 -5 -6 6 -1 11 2 17 5 13 3 -3 4 -12 1 -19z m29 -38 c18 0 24 -6
25 -22 1 -22 1 -22 8 2 7 23 8 21 14 -15 8 -50 7 -78 -2 -45 -5 20 -14 26 -41
28 -45 4 -54 14 -45 49 4 15 10 22 12 16 3 -7 16 -13 29 -13z m-51 -70 c-4
-13 0 -23 14 -32 26 -16 28 -32 2 -19 -22 12 -33 35 -25 56 9 22 16 18 9 -5z"/>
<path d="M1805 550 c3 -5 10 -10 16 -10 5 0 9 5 9 10 0 6 -7 10 -16 10 -8 0
-12 -4 -9 -10z"/>
<path d="M1911 134 c0 -11 3 -14 6 -6 3 7 2 16 -1 19 -3 4 -6 -2 -5 -13z"/>
<path d="M1962 1604 c-31 -22 -28 -37 8 -32 23 3 30 1 26 -9 -7 -18 35 -17 60
2 19 15 19 15 -5 35 -28 24 -59 26 -89 4z"/>
<path d="M1717 1603 c-13 -3 -17 -11 -14 -24 4 -15 2 -17 -13 -9 -26 14 -30
13 -30 -10 0 -11 7 -20 15 -20 9 0 15 -10 16 -22 0 -13 3 -17 6 -10 2 6 9 12
14 12 4 0 6 -7 3 -15 -4 -8 -13 -15 -22 -15 -8 0 -12 -3 -9 -7 4 -4 -7 -13
-24 -20 -17 -7 -33 -22 -36 -33 -6 -22 -19 -26 -25 -8 -7 19 -97 -62 -110 -99
-7 -18 -16 -33 -21 -33 -4 0 -5 -4 -2 -10 3 -5 1 -10 -4 -10 -20 0 -11 -39 9
-45 11 -3 25 -15 30 -26 10 -17 13 -18 34 -4 12 8 25 13 28 9 9 -8 126 25 172
48 29 15 67 22 143 26 104 5 185 -9 306 -54 54 -20 99 -18 120 6 17 20 17 22
0 50 -9 17 -20 30 -24 30 -4 0 -10 12 -13 26 -8 29 -29 54 -45 54 -6 0 -11 5
-11 11 0 6 -7 9 -15 5 -8 -3 -19 2 -24 12 -8 13 -10 13 -11 3 0 -11 -4 -9 -14
5 -8 10 -19 19 -24 19 -5 0 -20 11 -32 25 -12 14 -19 18 -15 10 4 -8 -2 -6
-12 5 -10 11 -35 28 -56 37 l-38 18 -9 -25 c-5 -14 -21 -30 -35 -35 -14 -5
-28 -17 -31 -25 -9 -21 -19 -19 -32 9 -8 19 -7 26 11 42 l22 19 -31 5 c-24 4
-30 10 -28 25 2 18 1 18 -17 -4 -11 -13 -25 -21 -34 -17 -18 7 -20 26 -2 26 6
0 18 4 26 9 12 8 12 12 2 25 -13 15 -55 19 -94 9z m87 -245 c-3 -4 -9 -8 -15
-8 -5 0 -9 4 -9 8 0 5 7 9 15 9 8 0 12 -4 9 -9z m116 -7 c0 -5 -3 -17 -6 -26
-6 -13 -9 -14 -16 -3 -7 9 -11 10 -14 2 -3 -7 -13 -10 -24 -7 -17 5 -17 6 -2
24 17 19 62 27 62 10z"/>
<path d="M2825 1541 c-3 -10 -2 -28 3 -41 10 -26 4 -80 -9 -80 -5 0 -9 -4 -9
-10 0 -5 7 -7 15 -4 8 4 15 15 15 25 0 10 4 19 9 19 15 0 21 46 10 79 -12 35
-25 40 -34 12z"/>
<path d="M1013 1463 c9 -9 20 -13 24 -9 4 4 1 11 -7 16 -25 16 -35 11 -17 -7z"/>
<path d="M2743 1376 l-22 -23 24 -11 c13 -6 32 -30 43 -54 19 -43 92 -118 114
-118 7 0 -4 12 -25 27 -59 42 -114 150 -69 137 9 -2 7 1 -5 7 -28 14 -29 24
-5 39 15 10 15 11 -5 7 -12 -3 -23 -1 -25 4 -2 4 -13 -2 -25 -15z"/>
<path d="M1191 1364 c0 -11 3 -14 6 -6 3 7 2 16 -1 19 -3 4 -6 -2 -5 -13z"/>
<path d="M2542 1310 c-7 -12 -9 -26 -5 -33 5 -8 10 -3 15 13 5 16 6 7 3 -25
-4 -40 -3 -45 5 -26 11 24 11 91 0 91 -3 0 -11 -9 -18 -20z"/>
<path d="M2483 1252 c-1 -22 0 -24 9 -8 6 10 6 22 2 26 -5 5 -10 -3 -11 -18z"/>
<path d="M1213 1242 c-7 -4 -9 -13 -4 -21 6 -9 10 -7 14 8 3 12 4 21 4 21 -1
0 -7 -4 -14 -8z"/>
<path d="M2516 1205 c-4 -14 -11 -25 -16 -25 -6 0 -10 -7 -10 -15 0 -18 26
-20 27 -2 0 6 4 24 8 40 4 15 5 27 2 27 -3 0 -8 -11 -11 -25z"/>
<path d="M1253 1204 c-3 -8 0 -21 7 -27 10 -9 12 -9 7 4 -3 9 0 22 6 28 8 8 8
11 -1 11 -7 0 -15 -7 -19 -16z"/>
<path d="M1300 1190 c-18 -16 -20 -20 -7 -20 10 0 17 -4 17 -10 0 -5 -5 -10
-12 -10 -6 0 -8 -3 -5 -7 4 -3 0 -14 -9 -24 -14 -16 -14 -18 5 -28 25 -14 41
-14 21 -1 -13 9 -13 10 0 11 10 0 8 3 -5 9 -19 8 -19 9 3 9 14 1 20 5 17 12
-4 6 -1 10 6 8 26 -3 39 1 39 12 0 9 -4 9 -13 0 -11 -8 -18 -6 -31 8 -11 12
-13 21 -7 25 5 4 14 -2 20 -11 10 -17 10 -17 11 0 0 9 -5 17 -11 17 -5 0 -7 5
-4 10 11 17 -11 11 -35 -10z"/>
<path d="M1826 1185 c-9 -14 -22 -25 -30 -25 -16 0 -46 -32 -46 -48 0 -7 11
-12 25 -12 15 0 24 -5 23 -12 -2 -9 7 -12 24 -10 18 2 31 -4 42 -20 16 -22 16
-22 16 -1 0 11 7 26 15 33 12 10 15 9 16 -6 1 -11 5 -6 9 11 5 19 8 23 9 11 1
-18 3 -18 28 5 14 13 23 18 18 10 -5 -9 -4 -12 3 -7 7 4 12 18 12 32 0 14 -4
22 -10 19 -5 -3 -10 1 -10 9 0 10 -9 16 -22 17 -22 1 -22 1 2 9 18 6 7 8 -41
9 -61 1 -68 -1 -83 -24z"/>
<path d="M2471 1134 c0 -11 3 -14 6 -6 3 7 2 16 -1 19 -3 4 -6 -2 -5 -13z"/>
<path d="M1200 1110 c0 -5 5 -10 11 -10 5 0 7 5 4 10 -3 6 -8 10 -11 10 -2 0
-4 -4 -4 -10z"/>
<path d="M1220 1083 c0 -15 19 -37 26 -31 3 4 -1 14 -10 23 -9 9 -16 13 -16 8z"/>
<path d="M2461 1081 c-8 -5 -9 -11 -3 -15 5 -3 12 1 16 9 6 17 6 18 -13 6z"/>
<path d="M2275 1060 c3 -5 8 -10 11 -10 2 0 4 5 4 10 0 6 -5 10 -11 10 -5 0
-7 -4 -4 -10z"/>
<path d="M1264 1039 c-2 -4 0 -18 5 -31 7 -16 10 -18 10 -6 1 9 6 20 13 24 7
5 9 0 6 -14 -5 -16 -2 -19 11 -15 13 5 14 3 4 -8 -7 -7 -13 -18 -13 -23 0 -6
5 -4 10 4 8 13 10 12 10 -2 0 -19 17 -23 38 -9 11 7 11 9 -2 14 -9 4 -16 10
-15 14 4 22 -2 34 -13 27 -10 -6 -10 -4 0 8 11 14 8 16 -23 20 -20 2 -38 1
-41 -3z"/>
<path d="M2373 1025 c-3 -9 -3 -18 -1 -21 3 -3 8 4 11 16 6 23 -1 27 -10 5z"/>
<path d="M2220 1016 c0 -8 4 -17 9 -20 5 -4 7 3 4 14 -6 23 -13 26 -13 6z"/>
<path d="M2470 1010 c0 -5 5 -10 10 -10 6 0 10 5 10 10 0 6 -4 10 -10 10 -5 0
-10 -4 -10 -10z"/>
<path d="M2300 981 c0 -5 7 -11 15 -15 8 -3 15 -13 15 -23 0 -15 4 -14 20 7
22 28 25 40 10 40 -5 0 -10 -7 -10 -15 0 -8 -4 -15 -10 -15 -5 0 -7 8 -4 18 5
14 4 15 -5 2 -7 -10 -11 -11 -11 -2 0 6 -4 12 -10 12 -5 0 -10 -4 -10 -9z"/>
<path d="M1390 965 c-10 -12 -10 -15 3 -15 8 0 17 7 21 15 3 8 2 15 -3 15 -5
0 -14 -7 -21 -15z"/>
<path d="M2085 880 c3 -5 8 -10 11 -10 2 0 4 5 4 10 0 6 -5 10 -11 10 -5 0 -7
-4 -4 -10z"/>
<path d="M890 670 c0 -5 5 -10 11 -10 5 0 7 5 4 10 -3 6 -8 10 -11 10 -2 0 -4
-4 -4 -10z"/>
</g>
</svg>
